# xmcd
#
# Track frame offsets:
#	150
#	15026
#	24802
#	37579
#	50613
#	62990
#	74325
#	85436
#	97917
#	109571
#	120325
#	132360
#	147376
#	161583
#	176010
#	189743
#	203010
#	225063
#
# Disc length: 3015 seconds
#
# Revision: 0
# Processed by: cddbd v1.5.2PL0 Copyright (c) Steve Scherf et al.
# Submitted via: audiograbber 1.83.01
#
DISCID=db0bc512
DTITLE=Chartbuster - Country 500 vol.1 d.3 8532-3
DYEAR=1900
DGENRE=karaoke
TTITLE0=Claude King - Wolverton Mountain
TTITLE1=Webb Pierce - I Ain't Never
TTITLE2=Ray Price - Heartaches by the Number
TTITLE3=Patsy Cline - Crazy
TTITLE4=Johnny Horton - The Battle of New Orleans
TTITLE5=Stonewall Jackson - Waterloo
TTITLE6=Coyboy Copas - Alabam
TTITLE7=Ferlin Husky - Wings of a Dove
TTITLE8=Hank Locklin - Please Help Me, I'm Falling (In Love with You)
TTITLE9=Jim Reeves - He'll Have to Go
TTITLE10=Faron Young - Hello walls
TTITLE11=Jimmy Dean - Big bad John
TTITLE12=Patsy Cline - I Fall to Pieces
TTITLE13=Marty Robbins - Devil Woman
TTITLE14=Bill Anderson - Still
TTITLE15=Hawkshaw Hawkins - Lonsome
TTITLE16=Dale and Grace - I'm Leavin' It All Up to You
TTITLE17=var - data
EXTD=
EXTT0=
EXTT1=
EXTT2=
EXTT3=
EXTT4=
EXTT5=
EXTT6=
EXTT7=
EXTT8=
EXTT9=
EXTT10=
EXTT11=
EXTT12=
EXTT13=
EXTT14=
EXTT15=
EXTT16=
EXTT17=
PLAYORDER=
